{"title":"[ShepardTDS] Ben-To Dual Audio [720p 8-bit x265 HEVC] 1-12 Compl","uid":12667442,"size":2221377682,"categoryP":"video","categoryS":"tv_shows","magnet":"?xt=urn:btih:11b9254f48f65610748beb0d33df2f5fab82cc91&amp;dn=%5BShepardTDS%5D+Ben-To+Dual+Audio+%5B720p+8-bit+x265+HEVC%5D+1-12+Compl&amp;tr=udp%3A%2F%2Ftracker.leechers-paradise.org%3A6969&amp;tr=udp%3A%2F%2Fzer0day.ch%3A1337&amp;tr=udp%3A%2F%2Fopen.demonii.com%3A1337&amp;tr=udp%3A%2F%2Ftracker.coppersurfer.tk%3A6969&amp;tr=udp%3A%2F%2Fexodus.desync.com%3A6969","seeders":1,"leechers":0,"uploader":"ShepardTDS","files":18,"time":1446382672,"description":"Constant Quality encoding.\r\nVariable Bit rates\r\nED and OP included\r\nBlu-Ray Source\r\n\r\n\r\nGeneral\r\n\r\nFormat : Matroska\r\nFile size : 150 MiB-191 MiB\r\nDuration : 23mn 41s\r\nOverall bit rate : 886 Kbps-1,125 Kbps\r\nEncoded date : UTC 2015-10-27 07:16:49\r\nWriting application : mkvmerge v7.7.0 ('Six Voices') 32bit built on Feb 28 2015 23:23:00\r\nWriting library : libebml v1.3.1 + libmatroska v1.4.2\r\n\r\nVideo\r\nID : 1\r\nFormat : V_MPEGH/ISO/HEVC\r\nCodec ID : V_MPEGH/ISO/HEVC\r\nDuration : 23mn 41s\r\nBit rate : 485 Kbps-719 Kbps\r\nWidth : 1 280 pixels\r\nHeight : 720 pixels\r\nDisplay aspect ratio : 16:9\r\nFrame rate : 23.976 fps\r\nBits/(Pixel*Frame) : 0.022\r\nStream size : 82.1 MiB (55%)\r\n\r\nAudio #1\r\nID : 2\r\nFormat : AC-3\r\nFormat/Info : Audio Coding 3\r\nMode extension : CM (complete main)\r\nCodec ID : A_AC3\r\nDuration : 23mn 41s\r\nBit rate mode : Constant\r\nBit rate : 192 Kbps\r\nChannel(s) : 6 channels\r\nChannel positions : Front: L C R, Side: L R, LFE\r\nSampling rate : 48.0 KHz\r\nBit depth : 16 bits\r\nCompression mode : Lossy\r\nStream size : 32.5 MiB (22%)\r\nLanguage : English\r\n\r\nAudio #2\r\nID : 3\r\nFormat : AC-3\r\nFormat/Info : Audio Coding 3\r\nMode extension : CM (complete main)\r\nCodec ID : A_AC3\r\nDuration : 23mn 41s\r\nBit rate mode : Constant\r\nBit rate : 192 Kbps\r\nChannel(s) : 2 channels\r\nChannel positions : Front: L R\r\nSampling rate : 48.0 KHz\r\nBit depth : 16 bits\r\nCompression mode : Lossy\r\nStream size : 32.5 MiB (22%)\r\nLanguage : Japanese\r\n\r\nText #1\r\nID : 4\r\nFormat : ASS\r\nCodec ID : S_TEXT/ASS\r\nCodec ID/Info : Advanced Sub Station Alpha\r\nCompression mode : Lossless\r\nTitle : English Signs/Songs\r\nLanguage : English\r\n\r\nText #2\r\nID : 5\r\nFormat : ASS\r\nCodec ID : S_TEXT/ASS\r\nCodec ID/Info : Advanced Sub Station Alpha\r\nCompression mode : Lossless\r\nTitle : English Subtitles\r\nLanguage : English\r\n\r\nMenu\r\n00:00:00.000 : en:Prologue\r\n00:05:07.974 : en:Opening\r\n00:06:37.981 : en:Part A\r\n00:13:38.985 : en:Part B\r\n00:21:21.989 : en:Ending\r\n00:22:51.954 : en:Conclusion\r\n00:23:24.987 : en:Preview","torrent":{"xt":"urn:btih:11b9254f48f65610748beb0d33df2f5fab82cc91","amp;dn":"%5BShepardTDS%5D+Ben-To+Dual+Audio+%5B720p+8-bit+x265+HEVC%5D+1-12+Compl","amp;tr":["udp%3A%2F%2Ftracker.leechers-paradise.org%3A6969","udp%3A%2F%2Fzer0day.ch%3A1337","udp%3A%2F%2Fopen.demonii.com%3A1337","udp%3A%2F%2Ftracker.coppersurfer.tk%3A6969","udp%3A%2F%2Fexodus.desync.com%3A6969"],"infoHash":"11b9254f48f65610748beb0d33df2f5fab82cc91","infoHashBuffer":{"type":"Buffer","data":[17,185,37,79,72,246,86,16,116,139,235,13,51,223,47,95,171,130,204,145]},"announce":[],"urlList":[]}}